<mxfile host="65bd71144e">
    <diagram id="nwdSCzwuePk1PnvwoUQb" name="Page-1">
        <mxGraphModel dx="745" dy="546" grid="1" gridSize="10" guides="1" tooltips="1" connect="1" arrows="1" fold="1" page="1" pageScale="1" pageWidth="827" pageHeight="1169" background="#FFFFFF" math="0" shadow="0">
            <root>
                <mxCell id="0"/>
                <mxCell id="1" parent="0"/>
                <mxCell id="2kkC-uDO4qgrPlb1AO49-221" style="edgeStyle=none;html=1;exitX=1;exitY=0;exitDx=0;exitDy=0;entryX=1;entryY=0.25;entryDx=0;entryDy=0;strokeColor=#000000;" parent="1" edge="1">
                    <mxGeometry relative="1" as="geometry">
                        <mxPoint x="1480" y="600" as="targetPoint"/>
                        <mxPoint x="1480" y="470" as="sourcePoint"/>
                        <Array as="points">
                            <mxPoint x="1520" y="470.25"/>
                            <mxPoint x="1520" y="600"/>
                        </Array>
                    </mxGeometry>
                </mxCell>
                <mxCell id="2kkC-uDO4qgrPlb1AO49-209" style="edgeStyle=none;html=1;fillColor=#FF9933;strokeColor=#FF9933;exitX=0;exitY=0.5;exitDx=0;exitDy=0;entryX=0.5;entryY=0;entryDx=0;entryDy=0;" parent="1" target="2kkC-uDO4qgrPlb1AO49-184" edge="1">
                    <mxGeometry relative="1" as="geometry">
                        <mxPoint x="360" y="540" as="targetPoint"/>
                        <mxPoint x="1120" y="650" as="sourcePoint"/>
                        <Array as="points">
                            <mxPoint x="920" y="650"/>
                            <mxPoint x="920" y="540"/>
                            <mxPoint x="380" y="540"/>
                        </Array>
                    </mxGeometry>
                </mxCell>
                <mxCell id="qb9317ztOWv1eg-Fw3YS-106" style="edgeStyle=none;html=1;exitX=0;exitY=0.5;exitDx=0;exitDy=0;entryX=0.5;entryY=0;entryDx=0;entryDy=0;strokeColor=#000000;" parent="1" edge="1">
                    <mxGeometry relative="1" as="geometry">
                        <mxPoint x="380" y="580" as="targetPoint"/>
                        <mxPoint x="720" y="490" as="sourcePoint"/>
                        <Array as="points">
                            <mxPoint x="380" y="490"/>
                        </Array>
                    </mxGeometry>
                </mxCell>
                <mxCell id="2kkC-uDO4qgrPlb1AO49-228" value="" style="edgeStyle=orthogonalEdgeStyle;rounded=0;orthogonalLoop=1;jettySize=auto;html=1;" parent="1" source="4" target="17cNY2cypdbhjjbuXBbz-177" edge="1">
                    <mxGeometry relative="1" as="geometry"/>
                </mxCell>
                <mxCell id="4" value="&lt;h2&gt;&lt;span style=&quot;font-size: 14px;&quot;&gt;GlobalContext&lt;/span&gt;&lt;/h2&gt;" style="rounded=0;whiteSpace=wrap;html=1;fillColor=#FFFFFF;strokeColor=#000000;" parent="1" vertex="1">
                    <mxGeometry x="1000" y="160" width="120" height="40" as="geometry"/>
                </mxCell>
                <mxCell id="46" style="edgeStyle=none;html=1;entryX=1;entryY=0.5;entryDx=0;entryDy=0;fillColor=#FF9933;strokeColor=#FF9933;" parent="1" target="2kkC-uDO4qgrPlb1AO49-179" edge="1">
                    <mxGeometry relative="1" as="geometry">
                        <mxPoint x="710" y="740" as="targetPoint"/>
                        <mxPoint x="720" y="690" as="sourcePoint"/>
                        <Array as="points">
                            <mxPoint x="680" y="690"/>
                            <mxPoint x="680" y="600"/>
                        </Array>
                    </mxGeometry>
                </mxCell>
                <mxCell id="17cNY2cypdbhjjbuXBbz-175" style="edgeStyle=none;html=1;" parent="1" edge="1">
                    <mxGeometry relative="1" as="geometry">
                        <mxPoint x="1059.3899999999999" y="240" as="targetPoint"/>
                        <mxPoint x="1059.3899999999999" y="200" as="sourcePoint"/>
                    </mxGeometry>
                </mxCell>
                <mxCell id="17cNY2cypdbhjjbuXBbz-177" value="&lt;h2&gt;&lt;span style=&quot;font-size: 14px;&quot;&gt;App.js&lt;/span&gt;&lt;/h2&gt;" style="rounded=0;whiteSpace=wrap;html=1;fillColor=#FF0000;strokeColor=#000000;" parent="1" vertex="1">
                    <mxGeometry x="1000" y="240" width="120" height="40" as="geometry"/>
                </mxCell>
                <mxCell id="17cNY2cypdbhjjbuXBbz-178" style="edgeStyle=none;html=1;" parent="1" edge="1">
                    <mxGeometry relative="1" as="geometry">
                        <mxPoint x="1059.3899999999999" y="320" as="targetPoint"/>
                        <mxPoint x="1059.3899999999999" y="280" as="sourcePoint"/>
                    </mxGeometry>
                </mxCell>
                <mxCell id="17cNY2cypdbhjjbuXBbz-179" value="&lt;h2&gt;&lt;span style=&quot;font-size: 14px;&quot;&gt;Routing&lt;/span&gt;&lt;/h2&gt;" style="rounded=0;whiteSpace=wrap;html=1;fillColor=#FFFFFF;strokeColor=#000000;" parent="1" vertex="1">
                    <mxGeometry x="1000" y="320" width="120" height="40" as="geometry"/>
                </mxCell>
                <mxCell id="17cNY2cypdbhjjbuXBbz-180" style="edgeStyle=none;html=1;strokeColor=#FF0000;" parent="1" edge="1">
                    <mxGeometry relative="1" as="geometry">
                        <mxPoint x="1000" y="400" as="targetPoint"/>
                        <mxPoint x="1059.3899999999999" y="360" as="sourcePoint"/>
                    </mxGeometry>
                </mxCell>
                <mxCell id="17cNY2cypdbhjjbuXBbz-182" style="edgeStyle=none;html=1;entryX=0.5;entryY=0;entryDx=0;entryDy=0;jumpStyle=none;" parent="1" target="2kkC-uDO4qgrPlb1AO49-212" edge="1">
                    <mxGeometry relative="1" as="geometry">
                        <mxPoint x="1320" y="400" as="targetPoint"/>
                        <mxPoint x="1059.7" y="360" as="sourcePoint"/>
                        <Array as="points">
                            <mxPoint x="1100" y="380"/>
                            <mxPoint x="1420" y="380"/>
                        </Array>
                    </mxGeometry>
                </mxCell>
                <mxCell id="17cNY2cypdbhjjbuXBbz-183" value="&lt;h2&gt;&lt;span style=&quot;font-size: 14px;&quot;&gt;DefaultLayout&lt;/span&gt;&lt;/h2&gt;" style="rounded=0;whiteSpace=wrap;html=1;fillColor=#FFFFFF;strokeColor=#000000;" parent="1" vertex="1">
                    <mxGeometry x="920" y="400" width="120" height="40" as="geometry"/>
                </mxCell>
                <mxCell id="17cNY2cypdbhjjbuXBbz-185" value="&lt;h2&gt;&lt;span style=&quot;font-size: 14px;&quot;&gt;USP Bar&lt;/span&gt;&lt;/h2&gt;" style="rounded=0;whiteSpace=wrap;html=1;fillColor=#66FFFF;strokeColor=#000000;" parent="1" vertex="1">
                    <mxGeometry x="920" y="440" width="120" height="20" as="geometry"/>
                </mxCell>
                <mxCell id="17cNY2cypdbhjjbuXBbz-186" value="&lt;h2&gt;&lt;span style=&quot;font-size: 14px;&quot;&gt;Header&lt;/span&gt;&lt;/h2&gt;" style="rounded=0;whiteSpace=wrap;html=1;fillColor=#66FFFF;strokeColor=#000000;" parent="1" vertex="1">
                    <mxGeometry x="920" y="460" width="120" height="20" as="geometry"/>
                </mxCell>
                <mxCell id="17cNY2cypdbhjjbuXBbz-187" value="&lt;h2&gt;&lt;span style=&quot;font-size: 14px;&quot;&gt;Outlet&lt;/span&gt;&lt;/h2&gt;" style="rounded=0;whiteSpace=wrap;html=1;fillColor=#CCCCCC;strokeColor=#000000;" parent="1" vertex="1">
                    <mxGeometry x="920" y="480" width="120" height="20" as="geometry"/>
                </mxCell>
                <mxCell id="17cNY2cypdbhjjbuXBbz-188" value="&lt;h2&gt;&lt;span style=&quot;font-size: 14px;&quot;&gt;Footer&lt;/span&gt;&lt;/h2&gt;" style="rounded=0;whiteSpace=wrap;html=1;fillColor=#66FFFF;strokeColor=#000000;" parent="1" vertex="1">
                    <mxGeometry x="920" y="500" width="120" height="20" as="geometry"/>
                </mxCell>
                <mxCell id="17cNY2cypdbhjjbuXBbz-190" value="&lt;h2&gt;&lt;span style=&quot;font-size: 14px;&quot;&gt;Homepage&lt;/span&gt;&lt;/h2&gt;" style="rounded=0;whiteSpace=wrap;html=1;fillColor=#FF9933;strokeColor=#000000;" parent="1" vertex="1">
                    <mxGeometry x="720" y="580" width="120" height="40" as="geometry"/>
                </mxCell>
                <mxCell id="17cNY2cypdbhjjbuXBbz-192" value="&lt;h2&gt;&lt;span style=&quot;font-size: 14px;&quot;&gt;Popup&lt;/span&gt;&lt;/h2&gt;" style="rounded=0;whiteSpace=wrap;html=1;fillColor=#99FF33;strokeColor=#000000;" parent="1" vertex="1">
                    <mxGeometry x="720" y="560" width="120" height="20" as="geometry"/>
                </mxCell>
                <mxCell id="17cNY2cypdbhjjbuXBbz-194" value="&lt;h2&gt;&lt;span style=&quot;font-size: 14px;&quot;&gt;Jumbotron&lt;/span&gt;&lt;/h2&gt;" style="rounded=0;whiteSpace=wrap;html=1;fillColor=#66FFFF;strokeColor=#000000;" parent="1" vertex="1">
                    <mxGeometry x="720" y="620" width="120" height="20" as="geometry"/>
                </mxCell>
                <mxCell id="AlbWoZTHrOoAmGMyRqAu-174" value="&lt;h2&gt;&lt;span style=&quot;font-size: 14px;&quot;&gt;&lt;span style=&quot;font-weight: normal;&quot;&gt;Background Img&lt;/span&gt;&lt;/span&gt;&lt;/h2&gt;" style="rounded=0;whiteSpace=wrap;html=1;fillColor=#F2FFFD;strokeColor=#000000;" parent="1" vertex="1">
                    <mxGeometry x="720" y="640" width="120" height="20" as="geometry"/>
                </mxCell>
                <mxCell id="AlbWoZTHrOoAmGMyRqAu-175" value="&lt;h2&gt;&lt;span style=&quot;font-size: 14px;&quot;&gt;&lt;span style=&quot;font-weight: normal;&quot;&gt;Description&lt;/span&gt;&lt;/span&gt;&lt;/h2&gt;" style="rounded=0;whiteSpace=wrap;html=1;fillColor=#F2FFFD;strokeColor=#000000;" parent="1" vertex="1">
                    <mxGeometry x="720" y="660" width="120" height="20" as="geometry"/>
                </mxCell>
                <mxCell id="AlbWoZTHrOoAmGMyRqAu-176" value="&lt;h2&gt;&lt;span style=&quot;font-size: 14px;&quot;&gt;&lt;span style=&quot;font-weight: normal;&quot;&gt;Btn &lt;/span&gt;&lt;font style=&quot;color: rgb(255, 153, 51);&quot;&gt;&lt;span style=&quot;font-weight: normal;&quot;&gt;Wines Page&lt;/span&gt;&lt;/font&gt;&lt;/span&gt;&lt;/h2&gt;" style="rounded=0;whiteSpace=wrap;html=1;fillColor=#F2FFFD;strokeColor=#000000;" parent="1" vertex="1">
                    <mxGeometry x="720" y="680" width="120" height="20" as="geometry"/>
                </mxCell>
                <mxCell id="AlbWoZTHrOoAmGMyRqAu-177" value="&lt;h2&gt;&lt;span style=&quot;font-size: 14px;&quot;&gt;Best Wine (x3)&lt;/span&gt;&lt;/h2&gt;" style="rounded=0;whiteSpace=wrap;html=1;fillColor=#66FFFF;strokeColor=#000000;" parent="1" vertex="1">
                    <mxGeometry x="720" y="700" width="120" height="20" as="geometry"/>
                </mxCell>
                <mxCell id="AlbWoZTHrOoAmGMyRqAu-178" value="&lt;h2&gt;&lt;span style=&quot;font-size: 14px;&quot;&gt;&lt;span style=&quot;font-weight: normal;&quot;&gt;Img + Description&lt;/span&gt;&lt;/span&gt;&lt;/h2&gt;" style="rounded=0;whiteSpace=wrap;html=1;fillColor=#F2FFFD;strokeColor=#000000;" parent="1" vertex="1">
                    <mxGeometry x="720" y="720" width="120" height="20" as="geometry"/>
                </mxCell>
                <mxCell id="2kkC-uDO4qgrPlb1AO49-174" value="&lt;h2&gt;&lt;span style=&quot;font-size: 14px;&quot;&gt;&lt;span style=&quot;font-weight: normal;&quot;&gt;Btn &lt;/span&gt;&lt;font style=&quot;color: rgb(255, 153, 51);&quot;&gt;&lt;span style=&quot;font-weight: normal;&quot;&gt;Wine Details&lt;/span&gt;&lt;/font&gt;&lt;/span&gt;&lt;/h2&gt;" style="rounded=0;whiteSpace=wrap;html=1;fillColor=#F2FFFD;strokeColor=#000000;" parent="1" vertex="1">
                    <mxGeometry x="720" y="740" width="120" height="20" as="geometry"/>
                </mxCell>
                <mxCell id="2kkC-uDO4qgrPlb1AO49-177" style="edgeStyle=none;html=1;exitX=0;exitY=0.5;exitDx=0;exitDy=0;entryX=0.5;entryY=0;entryDx=0;entryDy=0;strokeWidth=2;" parent="1" source="17cNY2cypdbhjjbuXBbz-187" target="2kkC-uDO4qgrPlb1AO49-179" edge="1">
                    <mxGeometry relative="1" as="geometry">
                        <mxPoint x="400" y="490" as="targetPoint"/>
                        <mxPoint x="860" y="414.88" as="sourcePoint"/>
                        <Array as="points">
                            <mxPoint x="580" y="490"/>
                        </Array>
                    </mxGeometry>
                </mxCell>
                <mxCell id="2kkC-uDO4qgrPlb1AO49-179" value="&lt;h2&gt;&lt;span style=&quot;font-size: 14px;&quot;&gt;Wines Page&lt;/span&gt;&lt;/h2&gt;" style="rounded=0;whiteSpace=wrap;html=1;fillColor=#FF9933;strokeColor=#000000;" parent="1" vertex="1">
                    <mxGeometry x="520" y="580" width="120" height="40" as="geometry"/>
                </mxCell>
                <mxCell id="2kkC-uDO4qgrPlb1AO49-180" value="&lt;h2&gt;&lt;span style=&quot;font-size: 14px;&quot;&gt;Jumbotron (filter)&lt;/span&gt;&lt;/h2&gt;" style="rounded=0;whiteSpace=wrap;html=1;fillColor=#66FFFF;strokeColor=#000000;" parent="1" vertex="1">
                    <mxGeometry x="520" y="620" width="120" height="20" as="geometry"/>
                </mxCell>
                <mxCell id="2kkC-uDO4qgrPlb1AO49-181" value="&lt;h2&gt;&lt;span style=&quot;font-size: 14px;&quot;&gt;Wines List&lt;/span&gt;&lt;/h2&gt;" style="rounded=0;whiteSpace=wrap;html=1;fillColor=#66FFFF;strokeColor=#000000;" parent="1" vertex="1">
                    <mxGeometry x="520" y="640" width="120" height="20" as="geometry"/>
                </mxCell>
                <mxCell id="2kkC-uDO4qgrPlb1AO49-182" value="&lt;h2&gt;&lt;span style=&quot;font-size: 14px;&quot;&gt;Wine Card (xN)&lt;/span&gt;&lt;/h2&gt;" style="rounded=0;whiteSpace=wrap;html=1;fillColor=#66FFFF;strokeColor=#000000;" parent="1" vertex="1">
                    <mxGeometry x="520" y="660" width="120" height="20" as="geometry"/>
                </mxCell>
                <mxCell id="2kkC-uDO4qgrPlb1AO49-183" value="&lt;h2&gt;&lt;span style=&quot;font-size: 14px;&quot;&gt;&lt;span style=&quot;font-weight: normal;&quot;&gt;Btn &lt;/span&gt;&lt;font style=&quot;color: rgb(255, 153, 51);&quot;&gt;&lt;span style=&quot;font-weight: normal;&quot;&gt;Wine Details&lt;/span&gt;&lt;/font&gt;&lt;/span&gt;&lt;/h2&gt;" style="rounded=0;whiteSpace=wrap;html=1;fillColor=#F2FFFD;strokeColor=#000000;" parent="1" vertex="1">
                    <mxGeometry x="520" y="680" width="120" height="20" as="geometry"/>
                </mxCell>
                <mxCell id="2kkC-uDO4qgrPlb1AO49-184" value="&lt;h2&gt;&lt;span style=&quot;font-size: 14px;&quot;&gt;Details Page&lt;/span&gt;&lt;/h2&gt;" style="rounded=0;whiteSpace=wrap;html=1;fillColor=#FF9933;strokeColor=#000000;" parent="1" vertex="1">
                    <mxGeometry x="320" y="580" width="120" height="40" as="geometry"/>
                </mxCell>
                <mxCell id="2kkC-uDO4qgrPlb1AO49-185" style="edgeStyle=none;html=1;entryX=1;entryY=0.5;entryDx=0;entryDy=0;fillColor=#FF9933;strokeColor=#FF9933;" parent="1" edge="1">
                    <mxGeometry relative="1" as="geometry">
                        <mxPoint x="440" y="600" as="targetPoint"/>
                        <mxPoint x="520" y="690" as="sourcePoint"/>
                        <Array as="points">
                            <mxPoint x="480" y="690"/>
                            <mxPoint x="480" y="600"/>
                        </Array>
                    </mxGeometry>
                </mxCell>
                <mxCell id="2kkC-uDO4qgrPlb1AO49-186" style="edgeStyle=none;html=1;entryX=1;entryY=0.5;entryDx=0;entryDy=0;fillColor=#FF9933;strokeColor=#FF9933;exitX=0;exitY=0.5;exitDx=0;exitDy=0;" parent="1" source="2kkC-uDO4qgrPlb1AO49-174" edge="1">
                    <mxGeometry relative="1" as="geometry">
                        <mxPoint x="440" y="600" as="targetPoint"/>
                        <mxPoint x="710" y="750" as="sourcePoint"/>
                        <Array as="points">
                            <mxPoint x="480" y="750"/>
                            <mxPoint x="480" y="600"/>
                        </Array>
                    </mxGeometry>
                </mxCell>
                <mxCell id="2kkC-uDO4qgrPlb1AO49-187" value="&lt;h2&gt;&lt;span style=&quot;font-size: 14px;&quot;&gt;Jumbotron&lt;/span&gt;&lt;/h2&gt;" style="rounded=0;whiteSpace=wrap;html=1;fillColor=#66FFFF;strokeColor=#000000;" parent="1" vertex="1">
                    <mxGeometry x="320" y="620" width="120" height="20" as="geometry"/>
                </mxCell>
                <mxCell id="2kkC-uDO4qgrPlb1AO49-188" value="&lt;h2&gt;&lt;span style=&quot;font-size: 14px;&quot;&gt;&lt;span style=&quot;font-weight: normal;&quot;&gt;Background Img&lt;/span&gt;&lt;/span&gt;&lt;/h2&gt;" style="rounded=0;whiteSpace=wrap;html=1;fillColor=#F2FFFD;strokeColor=#000000;" parent="1" vertex="1">
                    <mxGeometry x="320" y="640" width="120" height="20" as="geometry"/>
                </mxCell>
                <mxCell id="2kkC-uDO4qgrPlb1AO49-189" value="&lt;h2&gt;&lt;span style=&quot;font-size: 14px;&quot;&gt;&lt;span style=&quot;font-weight: normal;&quot;&gt;Wine Bottle Img&lt;/span&gt;&lt;/span&gt;&lt;/h2&gt;" style="rounded=0;whiteSpace=wrap;html=1;fillColor=#F2FFFD;strokeColor=#000000;" parent="1" vertex="1">
                    <mxGeometry x="320" y="660" width="120" height="20" as="geometry"/>
                </mxCell>
                <mxCell id="2kkC-uDO4qgrPlb1AO49-191" value="&lt;h2&gt;&lt;span style=&quot;font-size: 14px;&quot;&gt;Product Data&lt;/span&gt;&lt;/h2&gt;" style="rounded=0;whiteSpace=wrap;html=1;fillColor=#66FFFF;strokeColor=#000000;" parent="1" vertex="1">
                    <mxGeometry x="320" y="680" width="120" height="20" as="geometry"/>
                </mxCell>
                <mxCell id="2kkC-uDO4qgrPlb1AO49-192" value="&lt;h2&gt;&lt;span style=&quot;font-size: 14px;&quot;&gt;&lt;span style=&quot;font-weight: normal;&quot;&gt;Btn &lt;/span&gt;&lt;font style=&quot;color: rgb(204, 204, 0);&quot;&gt;&lt;span style=&quot;font-weight: normal;&quot;&gt;Add to Bag&lt;/span&gt;&lt;/font&gt;&lt;/span&gt;&lt;/h2&gt;" style="rounded=0;whiteSpace=wrap;html=1;fillColor=#F2FFFD;strokeColor=#000000;" parent="1" vertex="1">
                    <mxGeometry x="320" y="700" width="120" height="20" as="geometry"/>
                </mxCell>
                <mxCell id="2kkC-uDO4qgrPlb1AO49-194" value="&lt;h2&gt;&lt;span style=&quot;font-size: 14px;&quot;&gt;Related Products&lt;/span&gt;&lt;/h2&gt;" style="rounded=0;whiteSpace=wrap;html=1;fillColor=#66FFFF;strokeColor=#000000;" parent="1" vertex="1">
                    <mxGeometry x="320" y="720" width="120" height="20" as="geometry"/>
                </mxCell>
                <mxCell id="2kkC-uDO4qgrPlb1AO49-196" style="edgeStyle=none;html=1;exitX=1;exitY=0.5;exitDx=0;exitDy=0;strokeWidth=2;" parent="1" source="17cNY2cypdbhjjbuXBbz-187" edge="1">
                    <mxGeometry relative="1" as="geometry">
                        <mxPoint x="1120" y="600" as="targetPoint"/>
                        <mxPoint x="1120" y="490" as="sourcePoint"/>
                        <Array as="points">
                            <mxPoint x="1080" y="490.25"/>
                            <mxPoint x="1080" y="600.25"/>
                        </Array>
                    </mxGeometry>
                </mxCell>
                <mxCell id="2kkC-uDO4qgrPlb1AO49-197" value="&lt;h2&gt;&lt;span style=&quot;font-size: 14px;&quot;&gt;Shopping Bag Page&lt;/span&gt;&lt;/h2&gt;" style="rounded=0;whiteSpace=wrap;html=1;fillColor=#FF9933;strokeColor=#000000;" parent="1" vertex="1">
                    <mxGeometry x="1120" y="580" width="120" height="40" as="geometry"/>
                </mxCell>
                <mxCell id="2kkC-uDO4qgrPlb1AO49-198" value="&lt;h2&gt;&lt;span style=&quot;font-size: 14px;&quot;&gt;Added Products&lt;/span&gt;&lt;/h2&gt;" style="rounded=0;whiteSpace=wrap;html=1;fillColor=#66FFFF;strokeColor=#000000;" parent="1" vertex="1">
                    <mxGeometry x="1120" y="620" width="120" height="20" as="geometry"/>
                </mxCell>
                <mxCell id="2kkC-uDO4qgrPlb1AO49-200" value="&lt;h2&gt;&lt;span style=&quot;font-size: 14px;&quot;&gt;Product (xN)&lt;/span&gt;&lt;/h2&gt;" style="rounded=0;whiteSpace=wrap;html=1;fillColor=#66FFFF;strokeColor=#000000;" parent="1" vertex="1">
                    <mxGeometry x="1120" y="640" width="120" height="20" as="geometry"/>
                </mxCell>
                <mxCell id="2kkC-uDO4qgrPlb1AO49-203" value="&lt;h2&gt;&lt;span style=&quot;font-size: 14px;&quot;&gt;&lt;span style=&quot;font-weight: normal;&quot;&gt;Name/Image&lt;/span&gt;&lt;/span&gt;&lt;/h2&gt;" style="rounded=0;whiteSpace=wrap;html=1;fillColor=#F2FFFD;strokeColor=#000000;" parent="1" vertex="1">
                    <mxGeometry x="1120" y="660" width="120" height="20" as="geometry"/>
                </mxCell>
                <mxCell id="2kkC-uDO4qgrPlb1AO49-204" value="&lt;h2&gt;&lt;span style=&quot;font-size: 14px;&quot;&gt;&lt;span style=&quot;font-weight: normal;&quot;&gt;Quantity&lt;/span&gt;&lt;/span&gt;&lt;/h2&gt;" style="rounded=0;whiteSpace=wrap;html=1;fillColor=#F2FFFD;strokeColor=#000000;" parent="1" vertex="1">
                    <mxGeometry x="1120" y="680" width="120" height="20" as="geometry"/>
                </mxCell>
                <mxCell id="2kkC-uDO4qgrPlb1AO49-205" value="&lt;h2&gt;&lt;span style=&quot;font-size: 14px;&quot;&gt;&lt;span style=&quot;font-weight: normal;&quot;&gt;Price&lt;/span&gt;&lt;/span&gt;&lt;/h2&gt;" style="rounded=0;whiteSpace=wrap;html=1;fillColor=#F2FFFD;strokeColor=#000000;" parent="1" vertex="1">
                    <mxGeometry x="1120" y="700" width="120" height="20" as="geometry"/>
                </mxCell>
                <mxCell id="2kkC-uDO4qgrPlb1AO49-206" value="&lt;h2&gt;&lt;span style=&quot;font-size: 14px;&quot;&gt;&lt;span style=&quot;font-weight: normal;&quot;&gt;Btn &lt;/span&gt;&lt;font color=&quot;#cccc00&quot;&gt;&lt;span style=&quot;font-weight: normal;&quot;&gt;Remove&lt;/span&gt;&lt;/font&gt;&lt;/span&gt;&lt;/h2&gt;" style="rounded=0;whiteSpace=wrap;html=1;fillColor=#F2FFFD;strokeColor=#000000;" parent="1" vertex="1">
                    <mxGeometry x="1120" y="720" width="120" height="20" as="geometry"/>
                </mxCell>
                <mxCell id="2kkC-uDO4qgrPlb1AO49-207" value="&lt;h2&gt;&lt;span style=&quot;font-size: 14px;&quot;&gt;&lt;span style=&quot;font-weight: normal;&quot;&gt;Form&amp;nbsp;&lt;/span&gt;&lt;font color=&quot;#cccc00&quot;&gt;&lt;span style=&quot;font-weight: normal;&quot;&gt;Quantity&lt;/span&gt;&lt;/font&gt;&lt;/span&gt;&lt;/h2&gt;" style="rounded=0;whiteSpace=wrap;html=1;fillColor=#F2FFFD;strokeColor=#000000;" parent="1" vertex="1">
                    <mxGeometry x="1120" y="740" width="120" height="20" as="geometry"/>
                </mxCell>
                <mxCell id="2kkC-uDO4qgrPlb1AO49-208" value="&lt;h2&gt;&lt;span style=&quot;font-size: 14px;&quot;&gt;&lt;span style=&quot;font-weight: normal;&quot;&gt;Btn &lt;/span&gt;&lt;font color=&quot;#cccc00&quot;&gt;&lt;span style=&quot;font-weight: normal;&quot;&gt;Delete&lt;/span&gt;&lt;/font&gt;&lt;/span&gt;&lt;/h2&gt;" style="rounded=0;whiteSpace=wrap;html=1;fillColor=#F2FFFD;strokeColor=#000000;" parent="1" vertex="1">
                    <mxGeometry x="1120" y="760" width="120" height="20" as="geometry"/>
                </mxCell>
                <mxCell id="2kkC-uDO4qgrPlb1AO49-210" value="&lt;h2&gt;&lt;span style=&quot;font-size: 14px;&quot;&gt;&lt;span style=&quot;font-weight: normal;&quot;&gt;Btn &lt;/span&gt;&lt;font color=&quot;#ff9933&quot;&gt;&lt;span style=&quot;font-weight: normal;&quot;&gt;Checkout&lt;/span&gt;&lt;/font&gt;&lt;/span&gt;&lt;/h2&gt;" style="rounded=0;whiteSpace=wrap;html=1;fillColor=#F2FFFD;strokeColor=#000000;" parent="1" vertex="1">
                    <mxGeometry x="1120" y="820" width="120" height="20" as="geometry"/>
                </mxCell>
                <mxCell id="2kkC-uDO4qgrPlb1AO49-211" style="edgeStyle=none;html=1;fillColor=#FF9933;strokeColor=#FF9933;exitX=1;exitY=0.5;exitDx=0;exitDy=0;entryX=0;entryY=0.5;entryDx=0;entryDy=0;" parent="1" source="2kkC-uDO4qgrPlb1AO49-210" target="2kkC-uDO4qgrPlb1AO49-223" edge="1">
                    <mxGeometry relative="1" as="geometry">
                        <mxPoint x="1350" y="600" as="targetPoint"/>
                        <mxPoint x="1410" y="700" as="sourcePoint"/>
                        <Array as="points">
                            <mxPoint x="1280" y="830"/>
                            <mxPoint x="1280" y="600"/>
                        </Array>
                    </mxGeometry>
                </mxCell>
                <mxCell id="2kkC-uDO4qgrPlb1AO49-212" value="&lt;h2&gt;&lt;span style=&quot;font-size: 14px;&quot;&gt;CheckoutLayout&lt;/span&gt;&lt;/h2&gt;" style="rounded=0;whiteSpace=wrap;html=1;fillColor=#FFFFFF;strokeColor=#000000;" parent="1" vertex="1">
                    <mxGeometry x="1360" y="400" width="120" height="40" as="geometry"/>
                </mxCell>
                <mxCell id="2kkC-uDO4qgrPlb1AO49-213" value="&lt;h2&gt;&lt;span style=&quot;font-size: 14px;&quot;&gt;CoHeader&lt;/span&gt;&lt;/h2&gt;" style="rounded=0;whiteSpace=wrap;html=1;fillColor=#66FFFF;strokeColor=#000000;" parent="1" vertex="1">
                    <mxGeometry x="1360" y="440" width="120" height="20" as="geometry"/>
                </mxCell>
                <mxCell id="2kkC-uDO4qgrPlb1AO49-215" value="&lt;h2&gt;&lt;span style=&quot;font-size: 14px;&quot;&gt;Outlet&lt;/span&gt;&lt;/h2&gt;" style="rounded=0;whiteSpace=wrap;html=1;fillColor=#CCCCCC;strokeColor=#000000;" parent="1" vertex="1">
                    <mxGeometry x="1360" y="460" width="120" height="20" as="geometry"/>
                </mxCell>
                <mxCell id="2kkC-uDO4qgrPlb1AO49-216" value="&lt;h2&gt;&lt;span style=&quot;font-size: 14px;&quot;&gt;CoFooter&lt;/span&gt;&lt;/h2&gt;" style="rounded=0;whiteSpace=wrap;html=1;fillColor=#66FFFF;strokeColor=#000000;" parent="1" vertex="1">
                    <mxGeometry x="1360" y="480" width="120" height="20" as="geometry"/>
                </mxCell>
                <mxCell id="2kkC-uDO4qgrPlb1AO49-217" value="&lt;h2&gt;&lt;span style=&quot;font-size: 14px;&quot;&gt;Bag Details&lt;/span&gt;&lt;/h2&gt;" style="rounded=0;whiteSpace=wrap;html=1;fillColor=#66FFFF;strokeColor=#000000;" parent="1" vertex="1">
                    <mxGeometry x="1120" y="780" width="120" height="20" as="geometry"/>
                </mxCell>
                <mxCell id="2kkC-uDO4qgrPlb1AO49-218" value="&lt;h2&gt;&lt;span style=&quot;font-size: 14px;&quot;&gt;&lt;span style=&quot;font-weight: normal;&quot;&gt;Prices/Ship/Tax&lt;/span&gt;&lt;/span&gt;&lt;/h2&gt;" style="rounded=0;whiteSpace=wrap;html=1;fillColor=#F2FFFD;strokeColor=#000000;" parent="1" vertex="1">
                    <mxGeometry x="1120" y="800" width="120" height="20" as="geometry"/>
                </mxCell>
                <mxCell id="2kkC-uDO4qgrPlb1AO49-223" value="&lt;h2&gt;&lt;span style=&quot;font-size: 14px;&quot;&gt;Checkout Page&lt;/span&gt;&lt;/h2&gt;" style="rounded=0;whiteSpace=wrap;html=1;fillColor=#FF9933;strokeColor=#000000;" parent="1" vertex="1">
                    <mxGeometry x="1360" y="580" width="120" height="40" as="geometry"/>
                </mxCell>
                <mxCell id="2kkC-uDO4qgrPlb1AO49-224" value="&lt;h2&gt;&lt;span style=&quot;font-size: 14px;&quot;&gt;Addres Form&lt;/span&gt;&lt;/h2&gt;" style="rounded=0;whiteSpace=wrap;html=1;fillColor=#66FFFF;strokeColor=#000000;" parent="1" vertex="1">
                    <mxGeometry x="1360" y="620" width="120" height="20" as="geometry"/>
                </mxCell>
                <mxCell id="2kkC-uDO4qgrPlb1AO49-225" value="&lt;h2&gt;&lt;span style=&quot;font-size: 14px;&quot;&gt;Billing Address F.&lt;/span&gt;&lt;/h2&gt;" style="rounded=0;whiteSpace=wrap;html=1;fillColor=#66FFFF;strokeColor=#000000;" parent="1" vertex="1">
                    <mxGeometry x="1360" y="680" width="120" height="20" as="geometry"/>
                </mxCell>
                <mxCell id="2kkC-uDO4qgrPlb1AO49-241" value="" style="edgeStyle=orthogonalEdgeStyle;rounded=0;orthogonalLoop=1;jettySize=auto;html=1;" parent="1" source="2kkC-uDO4qgrPlb1AO49-226" target="2kkC-uDO4qgrPlb1AO49-240" edge="1">
                    <mxGeometry relative="1" as="geometry"/>
                </mxCell>
                <mxCell id="2kkC-uDO4qgrPlb1AO49-226" value="&lt;h2&gt;&lt;span style=&quot;font-size: 14px;&quot;&gt;Payment Form&lt;/span&gt;&lt;/h2&gt;" style="rounded=0;whiteSpace=wrap;html=1;fillColor=#66FFFF;strokeColor=#000000;" parent="1" vertex="1">
                    <mxGeometry x="1360" y="740" width="120" height="20" as="geometry"/>
                </mxCell>
                <mxCell id="2kkC-uDO4qgrPlb1AO49-234" value="" style="endArrow=classic;html=1;rounded=0;entryX=0.5;entryY=0;entryDx=0;entryDy=0;" parent="1" target="2kkC-uDO4qgrPlb1AO49-225" edge="1">
                    <mxGeometry relative="1" as="geometry">
                        <mxPoint x="1419.8899999999999" y="640" as="sourcePoint"/>
                        <mxPoint x="1419.8899999999999" y="670" as="targetPoint"/>
                    </mxGeometry>
                </mxCell>
                <mxCell id="2kkC-uDO4qgrPlb1AO49-235" value="Btn" style="edgeLabel;resizable=0;html=1;;align=center;verticalAlign=middle;" parent="2kkC-uDO4qgrPlb1AO49-234" connectable="0" vertex="1">
                    <mxGeometry relative="1" as="geometry"/>
                </mxCell>
                <mxCell id="2kkC-uDO4qgrPlb1AO49-236" value="" style="endArrow=classic;html=1;rounded=0;entryX=0.5;entryY=0;entryDx=0;entryDy=0;" parent="1" target="2kkC-uDO4qgrPlb1AO49-226" edge="1">
                    <mxGeometry relative="1" as="geometry">
                        <mxPoint x="1419.8899999999999" y="700" as="sourcePoint"/>
                        <mxPoint x="1419.8899999999999" y="730" as="targetPoint"/>
                    </mxGeometry>
                </mxCell>
                <mxCell id="2kkC-uDO4qgrPlb1AO49-237" value="Btn" style="edgeLabel;resizable=0;html=1;;align=center;verticalAlign=middle;" parent="2kkC-uDO4qgrPlb1AO49-236" connectable="0" vertex="1">
                    <mxGeometry relative="1" as="geometry"/>
                </mxCell>
                <mxCell id="2kkC-uDO4qgrPlb1AO49-238" value="" style="endArrow=classic;html=1;rounded=0;entryX=0.5;entryY=0;entryDx=0;entryDy=0;" parent="1" edge="1">
                    <mxGeometry relative="1" as="geometry">
                        <mxPoint x="1419.92" y="760" as="sourcePoint"/>
                        <mxPoint x="1420.03" y="800" as="targetPoint"/>
                    </mxGeometry>
                </mxCell>
                <mxCell id="2kkC-uDO4qgrPlb1AO49-239" value="Btn" style="edgeLabel;resizable=0;html=1;;align=center;verticalAlign=middle;" parent="2kkC-uDO4qgrPlb1AO49-238" connectable="0" vertex="1">
                    <mxGeometry relative="1" as="geometry"/>
                </mxCell>
                <mxCell id="2kkC-uDO4qgrPlb1AO49-240" value="&lt;h2&gt;&lt;span style=&quot;font-size: 14px;&quot;&gt;Recap&lt;/span&gt;&lt;/h2&gt;" style="rounded=0;whiteSpace=wrap;html=1;fillColor=#66FFFF;strokeColor=#000000;" parent="1" vertex="1">
                    <mxGeometry x="1360" y="800" width="120" height="20" as="geometry"/>
                </mxCell>
                <mxCell id="2kkC-uDO4qgrPlb1AO49-242" value="" style="endArrow=classic;html=1;rounded=0;entryX=0.5;entryY=0;entryDx=0;entryDy=0;" parent="1" edge="1">
                    <mxGeometry relative="1" as="geometry">
                        <mxPoint x="1419.6599999999999" y="820" as="sourcePoint"/>
                        <mxPoint x="1419.77" y="860" as="targetPoint"/>
                    </mxGeometry>
                </mxCell>
                <mxCell id="2kkC-uDO4qgrPlb1AO49-243" value="Btn" style="edgeLabel;resizable=0;html=1;;align=center;verticalAlign=middle;" parent="2kkC-uDO4qgrPlb1AO49-242" connectable="0" vertex="1">
                    <mxGeometry relative="1" as="geometry"/>
                </mxCell>
                <mxCell id="2kkC-uDO4qgrPlb1AO49-244" value="&lt;h2&gt;&lt;span style=&quot;font-size: 14px;&quot;&gt;&lt;font style=&quot;color: rgb(204, 204, 0);&quot;&gt;Email&lt;/font&gt;&lt;/span&gt;&lt;/h2&gt;" style="rounded=0;whiteSpace=wrap;html=1;fillColor=#FFFFFF;strokeColor=#000000;" parent="1" vertex="1">
                    <mxGeometry x="1360" y="870" width="120" height="20" as="geometry"/>
                </mxCell>
                <mxCell id="17cNY2cypdbhjjbuXBbz-189" style="edgeStyle=none;html=1;entryX=1;entryY=0.5;entryDx=0;entryDy=0;strokeColor=#FF0000;strokeWidth=2;" parent="1" target="17cNY2cypdbhjjbuXBbz-190" edge="1">
                    <mxGeometry relative="1" as="geometry">
                        <mxPoint x="680" y="650" as="targetPoint"/>
                        <mxPoint x="920" y="489.75" as="sourcePoint"/>
                        <Array as="points">
                            <mxPoint x="880" y="490"/>
                            <mxPoint x="880" y="600"/>
                        </Array>
                    </mxGeometry>
                </mxCell>
                <mxCell id="64" style="edgeStyle=none;html=1;" parent="1" source="47" edge="1">
                    <mxGeometry relative="1" as="geometry">
                        <mxPoint x="1300" y="990" as="targetPoint"/>
                    </mxGeometry>
                </mxCell>
                <mxCell id="47" value="&lt;h2&gt;&lt;span style=&quot;font-size: 14px;&quot;&gt;Addres Form&lt;/span&gt;&lt;/h2&gt;" style="rounded=0;whiteSpace=wrap;html=1;fillColor=#66FFFF;strokeColor=#000000;" parent="1" vertex="1">
                    <mxGeometry x="1241" y="940" width="120" height="20" as="geometry"/>
                </mxCell>
                <mxCell id="77" style="edgeStyle=none;html=1;" parent="1" source="48" edge="1">
                    <mxGeometry relative="1" as="geometry">
                        <mxPoint x="1301" y="1060" as="targetPoint"/>
                    </mxGeometry>
                </mxCell>
                <mxCell id="89" style="edgeStyle=none;html=1;entryX=0.5;entryY=0;entryDx=0;entryDy=0;" edge="1" parent="1" source="48" target="50">
                    <mxGeometry relative="1" as="geometry"/>
                </mxCell>
                <mxCell id="48" value="&lt;h2&gt;&lt;span style=&quot;font-size: 14px;&quot;&gt;compiliamo stripes&lt;/span&gt;&lt;/h2&gt;" style="rounded=0;whiteSpace=wrap;html=1;fillColor=#66FFFF;strokeColor=#000000;" parent="1" vertex="1">
                    <mxGeometry x="1206.5" y="1040" width="189" height="20" as="geometry"/>
                </mxCell>
                <mxCell id="66" style="edgeStyle=none;html=1;" parent="1" source="50" edge="1">
                    <mxGeometry relative="1" as="geometry">
                        <mxPoint x="1301" y="1170" as="targetPoint"/>
                    </mxGeometry>
                </mxCell>
                <mxCell id="50" value="&lt;h2&gt;&lt;span style=&quot;font-size: 14px;&quot;&gt;dati customer e dati necessari per attivare la sessione di pagamento&lt;/span&gt;&lt;/h2&gt;" style="rounded=0;whiteSpace=wrap;html=1;fillColor=#66FFFF;strokeColor=#000000;" parent="1" vertex="1">
                    <mxGeometry x="1151" y="1090" width="300" height="50" as="geometry"/>
                </mxCell>
                <mxCell id="67" style="edgeStyle=none;html=1;" parent="1" source="57" edge="1">
                    <mxGeometry relative="1" as="geometry">
                        <mxPoint x="1306.5" y="1260" as="targetPoint"/>
                    </mxGeometry>
                </mxCell>
                <mxCell id="57" value="&lt;h2&gt;&lt;span style=&quot;font-size: 14px;&quot;&gt;collegamento al fe con la sessione di pagamento&lt;/span&gt;&lt;/h2&gt;" style="rounded=0;whiteSpace=wrap;html=1;fillColor=#66FFFF;strokeColor=#000000;" parent="1" vertex="1">
                    <mxGeometry x="1162" y="1169" width="289" height="50" as="geometry"/>
                </mxCell>
                <mxCell id="60" value="&lt;h2&gt;&lt;span style=&quot;font-size: 14px;&quot;&gt;&lt;font style=&quot;color: rgb(204, 204, 0);&quot;&gt;inviamo l&#39;email&lt;/font&gt;&lt;/span&gt;&lt;/h2&gt;" style="rounded=0;whiteSpace=wrap;html=1;fillColor=#FFFFFF;strokeColor=#000000;" parent="1" vertex="1">
                    <mxGeometry x="1181" y="1780" width="120" height="20" as="geometry"/>
                </mxCell>
                <mxCell id="69" style="edgeStyle=none;html=1;entryX=0.478;entryY=0;entryDx=0;entryDy=0;entryPerimeter=0;" parent="1" source="68" target="70" edge="1">
                    <mxGeometry relative="1" as="geometry">
                        <mxPoint x="1306.5" y="1360" as="targetPoint"/>
                    </mxGeometry>
                </mxCell>
                <mxCell id="68" value="&lt;h2&gt;&lt;span style=&quot;font-size: 14px;&quot;&gt;sessione di pagamento&lt;/span&gt;&lt;/h2&gt;" style="rounded=0;whiteSpace=wrap;html=1;fillColor=#66FFFF;strokeColor=#000000;" parent="1" vertex="1">
                    <mxGeometry x="1162" y="1260" width="289" height="50" as="geometry"/>
                </mxCell>
                <mxCell id="71" style="edgeStyle=none;html=1;entryX=0.5;entryY=0;entryDx=0;entryDy=0;" parent="1" source="70" target="72" edge="1">
                    <mxGeometry relative="1" as="geometry">
                        <mxPoint x="1220" y="1470" as="targetPoint"/>
                    </mxGeometry>
                </mxCell>
                <mxCell id="81" style="edgeStyle=none;html=1;exitX=0.75;exitY=1;exitDx=0;exitDy=0;entryX=0.5;entryY=0;entryDx=0;entryDy=0;" parent="1" source="70" target="82" edge="1">
                    <mxGeometry relative="1" as="geometry">
                        <mxPoint x="1500" y="1470" as="targetPoint"/>
                    </mxGeometry>
                </mxCell>
                <mxCell id="70" value="&lt;h2&gt;&lt;span style=&quot;font-size: 14px;&quot;&gt;stato&lt;/span&gt;&lt;/h2&gt;" style="rounded=0;whiteSpace=wrap;html=1;fillColor=#66FFFF;strokeColor=#000000;" parent="1" vertex="1">
                    <mxGeometry x="1172" y="1380" width="289" height="50" as="geometry"/>
                </mxCell>
                <mxCell id="73" style="edgeStyle=none;html=1;" parent="1" source="72" edge="1">
                    <mxGeometry relative="1" as="geometry">
                        <mxPoint x="1234.5" y="1560" as="targetPoint"/>
                    </mxGeometry>
                </mxCell>
                <mxCell id="72" value="&lt;h2&gt;&lt;span style=&quot;font-size: 14px;&quot;&gt;positivo&lt;/span&gt;&lt;/h2&gt;" style="rounded=0;whiteSpace=wrap;html=1;fillColor=#66FFFF;strokeColor=#000000;" parent="1" vertex="1">
                    <mxGeometry x="1130" y="1480" width="200" height="20" as="geometry"/>
                </mxCell>
                <mxCell id="75" style="edgeStyle=none;html=1;" parent="1" source="74" edge="1">
                    <mxGeometry relative="1" as="geometry">
                        <mxPoint x="1240.5" y="1650" as="targetPoint"/>
                    </mxGeometry>
                </mxCell>
                <mxCell id="74" value="&lt;h2&gt;&lt;span style=&quot;font-size: 14px;&quot;&gt;reindirizzamento alla pagina succes&lt;/span&gt;&lt;/h2&gt;" style="rounded=0;whiteSpace=wrap;html=1;fillColor=#66FFFF;strokeColor=#000000;" parent="1" vertex="1">
                    <mxGeometry x="1096" y="1560" width="289" height="50" as="geometry"/>
                </mxCell>
                <mxCell id="80" style="edgeStyle=none;html=1;" parent="1" source="76" target="60" edge="1">
                    <mxGeometry relative="1" as="geometry">
                        <mxPoint x="1250" y="1760" as="targetPoint"/>
                    </mxGeometry>
                </mxCell>
                <mxCell id="76" value="facciamo partire la chiamata per modificare l&#39;ordine come andato a buon fine" style="rounded=0;whiteSpace=wrap;html=1;fillColor=#66FFFF;strokeColor=#000000;" parent="1" vertex="1">
                    <mxGeometry x="1096" y="1650" width="289" height="50" as="geometry"/>
                </mxCell>
                <mxCell id="88" style="edgeStyle=none;html=1;" edge="1" parent="1" source="78" target="48">
                    <mxGeometry relative="1" as="geometry"/>
                </mxCell>
                <mxCell id="78" value="&lt;h2&gt;&lt;span style=&quot;font-size: 14px;&quot;&gt;aggiorniamo lo stock per evitare overbooking&lt;/span&gt;&lt;/h2&gt;" style="rounded=0;whiteSpace=wrap;html=1;fillColor=#66FFFF;strokeColor=#000000;" parent="1" vertex="1">
                    <mxGeometry x="1136" y="990" width="330" height="20" as="geometry"/>
                </mxCell>
                <mxCell id="83" style="edgeStyle=none;html=1;entryX=0.5;entryY=0;entryDx=0;entryDy=0;" parent="1" source="82" target="84" edge="1">
                    <mxGeometry relative="1" as="geometry">
                        <mxPoint x="1495.5" y="1540" as="targetPoint"/>
                    </mxGeometry>
                </mxCell>
                <mxCell id="82" value="&lt;h2&gt;&lt;span style=&quot;font-size: 14px;&quot;&gt;negativo&lt;/span&gt;&lt;/h2&gt;" style="rounded=0;whiteSpace=wrap;html=1;fillColor=#66FFFF;strokeColor=#000000;" parent="1" vertex="1">
                    <mxGeometry x="1395.5" y="1480" width="200" height="20" as="geometry"/>
                </mxCell>
                <mxCell id="86" style="edgeStyle=none;html=1;exitX=0.5;exitY=1;exitDx=0;exitDy=0;entryX=0.5;entryY=0;entryDx=0;entryDy=0;" parent="1" source="84" target="85" edge="1">
                    <mxGeometry relative="1" as="geometry"/>
                </mxCell>
                <mxCell id="84" value="&lt;h2&gt;&lt;span style=&quot;font-size: 14px;&quot;&gt;reindirizzamento alla pagina cancel&lt;/span&gt;&lt;/h2&gt;" style="rounded=0;whiteSpace=wrap;html=1;fillColor=#66FFFF;strokeColor=#000000;" parent="1" vertex="1">
                    <mxGeometry x="1395.5" y="1560" width="289" height="50" as="geometry"/>
                </mxCell>
                <mxCell id="85" value="facciamo partire la chiamata per modificare l&#39;ordine come cancelled e rimettiamo gli ordini del carello di nuovo nello stock&amp;nbsp;" style="rounded=0;whiteSpace=wrap;html=1;fillColor=#66FFFF;strokeColor=#000000;" parent="1" vertex="1">
                    <mxGeometry x="1420" y="1650" width="289" height="50" as="geometry"/>
                </mxCell>
            </root>
        </mxGraphModel>
    </diagram>
</mxfile>